<svg width="40" height="40" viewBox="0 0 40 40" fill="none" xmlns="http://www.w3.org/2000/svg">
<path fill-rule="evenodd" clip-rule="evenodd" d="M0 6.25C0 2.79822 2.79822 0 6.25 0H33.75C37.2018 0 40 2.79822 40 6.25V33.75C40 37.2018 37.2018 40 33.75 40H6.25C2.79822 40 0 37.2018 0 33.75V6.25ZM10.25 16.625V30H14.5V16.625H10.25ZM10 12.375C10 13.75 11 14.75 12.375 14.75C13.75 14.75 14.75 13.75 14.75 12.375C14.75 11 13.75 10 12.375 10C11.125 10 10 11 10 12.375ZM25.75 30H29.75V21.75C29.75 17.625 27.25 16.25 24.875 16.25C22.75 16.25 21.25 17.625 20.875 18.5V16.625H16.875V30H21.125V22.875C21.125 21 22.375 20 23.625 20C24.875 20 25.75 20.625 25.75 22.75V30Z" fill="black"/>
</svg>
